<?xml version="1.0" standalone="no"?>
<!DOCTYPE svg PUBLIC "-//W3C//DTD SVG 20010904//EN"
 "http://www.w3.org/TR/2001/REC-SVG-20010904/DTD/svg10.dtd">
<svg version="1.0" xmlns="http://www.w3.org/2000/svg"
 width="1037.000000pt" height="191.000000pt" viewBox="0 0 1037.000000 191.000000"
 preserveAspectRatio="xMidYMid meet">

<g transform="translate(0.000000,191.000000) scale(0.100000,-0.100000)"
fill="#000000" stroke="none">
<path d="M355 1545 c-50 -18 -100 -71 -114 -122 -7 -24 -11 -202 -11 -498 0
-426 2 -463 19 -500 22 -48 54 -79 103 -100 33 -13 259 -15 2083 -15 l2045 0
0 625 0 625 -2042 0 c-1735 -1 -2049 -3 -2083 -15z m3443 -301 c2 -1 -1 -12
-7 -23 -11 -20 -10 -21 166 -23 173 -3 178 -4 181 -24 3 -24 -71 -102 -125
-131 -18 -10 -33 -21 -33 -24 0 -10 89 -28 165 -35 88 -8 89 -9 68 -44 -9 -16
-23 -30 -29 -30 -30 0 -178 32 -229 50 l-58 20 -86 -29 c-47 -16 -95 -31 -106
-34 -11 -2 80 -5 202 -6 l222 -1 5 -52 c4 -29 4 -69 2 -88 -2 -19 -5 -68 -5
-107 -1 -71 -2 -73 -26 -73 -14 0 -28 7 -31 15 -5 13 -36 15 -190 15 -157 0
-184 -2 -184 -15 0 -10 -10 -15 -30 -15 l-30 0 0 156 0 157 -34 -6 c-29 -5
-37 -2 -51 20 -9 13 -15 26 -13 27 2 2 42 11 90 20 48 9 110 25 138 34 l51 17
-56 49 -56 48 -55 -52 -56 -53 -21 21 -21 21 70 73 c39 40 80 90 93 110 21 35
24 36 49 26 15 -7 28 -13 30 -14z m-1939 -13 c11 -15 18 -31 14 -35 -3 -3 19
-6 50 -6 54 0 57 -1 57 -25 0 -20 -5 -25 -26 -25 -23 0 -25 -2 -14 -15 10 -13
10 -19 -5 -35 -18 -20 -17 -20 23 -20 23 0 42 -5 44 -12 4 -10 18 -8 61 5 l57
18 -28 24 -27 24 -25 -25 c-24 -22 -27 -23 -42 -7 -15 15 -12 21 40 87 31 39
57 73 59 75 2 2 15 -1 29 -8 21 -9 24 -14 14 -26 -11 -13 0 -15 79 -15 90 0
91 0 91 -24 0 -16 -15 -37 -45 -64 l-44 -39 38 -12 c21 -6 45 -11 52 -11 8 0
20 -4 28 -9 19 -12 -4 -55 -26 -47 -9 4 -17 -1 -20 -14 -4 -16 -14 -20 -48
-20 -41 0 -55 -11 -55 -41 0 -5 36 -9 81 -9 71 0 80 -2 77 -17 -3 -16 -21 -18
-181 -21 -172 -2 -177 -2 -177 18 0 18 6 20 75 20 41 0 75 4 75 9 0 32 -14 41
-61 41 -38 0 -49 4 -49 16 0 11 -6 13 -19 9 -12 -4 -23 0 -28 9 -7 13 -37 16
-158 18 -147 3 -150 3 -153 26 -3 20 1 22 44 22 46 0 47 0 29 20 -9 10 -15 26
-12 35 5 11 0 15 -18 15 -20 0 -25 5 -25 25 0 24 2 25 67 25 65 0 66 0 48 20
-15 16 -15 22 -5 35 19 22 36 18 59 -14z m-785 -23 c94 -77 100 -226 11 -274
-32 -17 -33 -17 -60 4 -15 12 -31 19 -36 16 -15 -9 -10 -32 9 -43 16 -9 16
-11 -5 -32 -31 -32 -55 -19 -51 27 2 27 -2 39 -16 48 -12 7 -20 7 -22 1 -13
-33 -20 -36 -57 -20 -46 19 -67 59 -67 129 0 66 26 116 79 152 29 20 48 24
106 24 64 0 74 -3 109 -32z m1981 -39 c54 -20 55 -21 55 -60 0 -21 -3 -39 -7
-39 -3 0 -30 12 -60 27 -66 32 -151 36 -200 10 -98 -52 -112 -246 -24 -331 54
-52 157 -54 239 -5 46 27 52 24 52 -20 0 -36 -3 -40 -42 -56 -24 -10 -80 -20
-125 -23 -74 -4 -88 -2 -137 22 -56 27 -92 70 -114 135 -15 44 -15 152 0 202
15 52 73 117 122 140 58 26 169 25 241 -2z m-445 -14 c0 -22 -4 -25 -35 -25
l-35 0 0 -200 0 -200 35 0 c31 0 35 -3 35 -25 l0 -25 -108 0 c-108 0 -108 0
-110 25 -2 22 2 25 33 25 l35 0 0 200 0 200 -35 0 c-31 0 -35 3 -35 25 l0 25
110 0 110 0 0 -25z m841 5 c58 -30 81 -72 76 -138 -7 -96 -78 -152 -194 -152
l-63 0 0 -95 0 -95 -40 0 -40 0 0 250 0 250 110 0 c92 0 118 -4 151 -20z
m-2163 -68 c7 -5 17 -31 22 -58 5 -27 12 -62 16 -77 4 -16 1 -46 -6 -68 -10
-30 -11 -42 -2 -51 24 -24 12 -56 -39 -102 l-51 -45 26 -24 25 -24 -20 -21
c-12 -14 -32 -22 -52 -22 -18 0 -43 -6 -57 -13 -70 -36 -141 -50 -223 -42 -45
4 -90 11 -101 17 -10 6 -33 12 -50 14 -28 4 -56 14 -96 34 -26 13 -22 35 10
47 28 11 29 13 19 37 -7 14 -17 26 -24 26 -6 0 -28 18 -49 39 -39 40 -39 40
-22 67 17 25 17 28 0 65 -14 33 -15 45 -6 77 7 20 16 56 22 80 8 31 16 42 30
42 12 0 21 -8 24 -22 2 -13 8 -48 14 -78 5 -31 27 -91 48 -135 38 -77 40 -80
74 -80 19 0 45 -6 58 -14 21 -11 27 -9 57 13 40 31 37 30 62 9 15 -14 33 -17
72 -15 48 4 53 6 76 47 33 56 75 177 75 215 0 58 30 85 68 62z m682 -222 l0
-120 -24 0 c-14 0 -28 5 -31 10 -11 18 -45 11 -45 -9 0 -17 9 -20 70 -23 l70
-3 0 63 0 62 150 0 149 0 6 -32 c3 -18 4 -44 1 -58 -2 -14 -5 -37 -5 -52 -1
-23 -6 -28 -26 -28 -22 0 -24 4 -27 58 -3 56 -3 57 -35 60 l-33 3 0 -54 0 -55
80 -28 c44 -16 80 -32 80 -37 0 -5 -4 -17 -10 -27 -9 -17 -14 -16 -94 15 -70
28 -87 31 -96 20 -12 -15 -83 -40 -141 -49 -31 -6 -37 -3 -47 19 -13 29 -18
27 73 44 74 14 92 32 101 99 l7 52 -37 0 -36 0 0 -61 0 -61 -32 2 c-18 1 -63
2 -100 1 l-68 -1 0 -50 c0 -49 -1 -50 -30 -50 -29 0 -30 1 -30 50 l0 50 -70 0
c-68 0 -70 1 -70 25 0 24 2 25 70 25 63 0 70 2 70 20 0 15 -7 20 -25 20 -14 0
-25 -4 -25 -10 0 -5 -11 -10 -25 -10 l-25 0 0 120 0 120 130 0 130 0 0 -120z"/>
<path d="M3780 1126 c6 -8 34 -29 62 -47 l51 -33 52 28 c30 15 61 36 71 47 17
19 15 19 -116 19 -114 0 -131 -2 -120 -14z"/>
<path d="M3700 825 l0 -35 80 0 80 0 0 35 0 35 -80 0 -80 0 0 -35z"/>
<path d="M3920 825 l0 -35 75 0 75 0 0 35 0 35 -75 0 -75 0 0 -35z"/>
<path d="M3700 705 l0 -35 80 0 80 0 0 35 0 35 -80 0 -80 0 0 -35z"/>
<path d="M3920 705 l0 -35 75 0 75 0 0 35 0 35 -75 0 -75 0 0 -35z"/>
<path d="M2135 1135 c17 -14 32 -25 35 -25 3 1 19 12 35 25 l30 25 -65 0 -65
-1 30 -24z"/>
<path d="M1780 1132 c0 -5 9 -17 20 -27 11 -10 17 -22 14 -26 -3 -5 5 -9 18
-9 21 0 58 41 58 64 0 3 -25 6 -55 6 -30 0 -55 -4 -55 -8z"/>
<path d="M2115 1030 l-40 -19 100 0 100 0 -55 19 c-63 23 -55 23 -105 0z"/>
<path d="M935 1212 c-77 -9 -137 -123 -104 -196 18 -38 39 -40 74 -6 39 38 79
40 116 4 32 -31 55 -27 70 13 17 45 2 98 -40 141 -39 40 -64 50 -116 44z m32
-74 c-3 -7 -5 -2 -5 12 0 14 2 19 5 13 2 -7 2 -19 0 -25z"/>
<path d="M3270 1025 l0 -98 57 6 c88 9 135 57 119 120 -9 38 -46 58 -116 64
l-60 6 0 -98z"/>
<path d="M1760 925 c0 -12 15 -15 75 -15 60 0 75 3 75 15 0 12 -15 15 -75 15
-60 0 -75 -3 -75 -15z"/>
<path d="M1760 840 c0 -18 7 -20 75 -20 68 0 75 2 75 20 0 18 -7 20 -75 20
-68 0 -75 -2 -75 -20z"/>
<path d="M9220 1110 l0 -110 25 0 c16 0 25 6 25 15 0 13 27 15 180 15 153 0
180 -2 180 -15 0 -9 9 -15 25 -15 l25 0 0 110 0 110 -230 0 -230 0 0 -110z
m410 15 l0 -45 -180 0 -180 0 0 45 0 45 180 0 180 0 0 -45z"/>
<path d="M4850 1177 c-42 -11 -45 -14 -48 -50 l-3 -38 32 17 c18 9 57 18 88
21 47 4 60 2 84 -17 21 -17 27 -30 27 -61 0 -66 -39 -121 -161 -225 -73 -62
-79 -70 -79 -106 l0 -38 165 0 165 0 0 30 0 30 -132 0 -133 1 30 25 c87 75
180 174 196 209 35 75 17 154 -42 189 -39 23 -130 29 -189 13z"/>
<path d="M5335 1183 c-36 -10 -66 -36 -88 -77 -20 -36 -22 -56 -22 -176 0
-120 2 -140 22 -176 25 -47 55 -70 107 -79 51 -10 100 2 136 32 52 43 64 83
64 218 1 109 -1 125 -24 169 -14 28 -37 59 -52 69 -27 20 -105 31 -143 20z
m115 -73 c33 -33 40 -64 40 -175 0 -153 -27 -205 -106 -205 -74 0 -98 49 -98
200 0 157 22 199 107 200 24 0 44 -7 57 -20z"/>
<path d="M5718 1174 c-45 -14 -48 -17 -48 -48 l0 -34 53 20 c68 26 143 21 169
-12 52 -64 -1 -152 -194 -317 -31 -26 -38 -39 -38 -68 l0 -35 170 0 170 0 0
30 0 30 -135 0 -135 0 78 69 c130 115 165 166 166 242 0 59 -23 95 -77 120
-50 22 -114 23 -179 3z"/>
<path d="M6624 1171 c-31 -14 -47 -30 -65 -67 -21 -44 -24 -62 -24 -174 0
-108 3 -132 22 -173 54 -116 228 -115 285 1 20 42 23 62 23 172 0 110 -3 130
-23 172 -39 80 -131 109 -218 69z m133 -56 c32 -23 45 -76 45 -185 0 -151 -25
-200 -102 -200 -77 0 -104 52 -104 200 1 149 27 200 104 200 20 0 45 -7 57
-15z"/>
<path d="M7440 1061 l0 -128 69 5 c123 8 181 -32 166 -118 -14 -81 -100 -111
-202 -72 l-53 20 0 -34 c0 -42 22 -53 120 -61 55 -4 72 -1 109 19 65 34 85 66
89 147 4 64 2 70 -26 103 -35 40 -86 58 -161 58 l-51 0 0 65 0 65 120 0 120 0
0 30 0 30 -150 0 -150 0 0 -129z"/>
<path d="M7935 1176 c-48 -21 -93 -79 -101 -131 -19 -131 97 -217 232 -171 26
9 49 16 50 16 1 0 -2 -17 -6 -37 -19 -83 -81 -126 -173 -120 l-58 3 3 -30 c3
-27 7 -31 38 -34 107 -11 203 48 240 146 32 84 31 211 -2 277 -40 81 -140 117
-223 81z m119 -58 c37 -16 57 -52 63 -114 l6 -54 -36 -15 c-20 -8 -57 -15 -82
-15 -38 0 -52 5 -76 29 -32 33 -39 86 -16 131 23 45 88 63 141 38z"/>
<path d="M8389 1180 c-67 -20 -99 -62 -99 -129 0 -37 20 -69 57 -89 14 -8 12
-14 -19 -41 -69 -60 -74 -133 -15 -197 38 -40 103 -60 168 -50 66 10 107 39
131 93 17 39 19 52 9 84 -10 34 -60 89 -81 89 -4 0 10 17 31 39 33 33 39 45
39 83 0 24 -7 54 -16 67 -34 48 -133 73 -205 51z m121 -55 c16 -8 32 -24 35
-36 11 -33 -3 -84 -29 -108 -23 -21 -24 -22 -67 -5 -73 28 -106 66 -95 110 12
47 98 69 156 39z m-31 -220 c64 -30 80 -49 81 -92 0 -46 -35 -83 -87 -90 -119
-16 -176 97 -95 190 20 23 37 22 101 -8z"/>
<path d="M8890 1181 c-118 -37 -170 -123 -170 -280 0 -94 18 -148 61 -188 68
-62 176 -56 241 13 52 56 61 120 28 192 -32 71 -126 100 -219 67 -40 -14 -41
-14 -41 8 0 36 42 98 80 119 26 14 49 18 93 15 l58 -3 -3 30 c-3 30 -5 31 -53
33 -27 1 -61 -2 -75 -6z m79 -267 c27 -22 31 -32 31 -76 0 -41 -5 -54 -29 -79
-58 -58 -157 -26 -181 59 -18 68 -14 91 23 107 54 24 121 19 156 -11z"/>
<path d="M6191 1038 c-109 -127 -121 -146 -121 -180 l0 -38 120 0 120 0 0 -70
0 -70 30 0 30 0 0 70 0 70 40 0 c38 0 40 2 40 30 0 28 -2 30 -40 30 l-40 0 0
150 0 150 -29 0 c-24 0 -46 -20 -150 -142z m119 -53 l0 -105 -90 0 c-49 0 -90
3 -90 6 0 6 170 204 176 204 2 0 4 -47 4 -105z"/>
<path d="M7070 1044 c-105 -123 -115 -139 -118 -180 l-3 -44 120 0 121 0 0
-70 0 -70 30 0 30 0 0 70 0 70 35 0 c32 0 35 2 35 30 0 28 -3 30 -35 30 l-35
0 0 150 0 150 -32 -1 c-30 0 -45 -14 -148 -135z m120 -59 l0 -105 -96 0 -95 0
28 34 c117 139 149 176 156 176 4 0 7 -47 7 -105z"/>
<path d="M9120 935 c0 -24 2 -25 71 -25 64 0 70 -2 64 -17 -43 -107 -51 -103
181 -103 l197 0 -7 -47 c-9 -73 -28 -83 -147 -83 -98 0 -99 0 -99 -24 0 -22 4
-24 83 -30 169 -13 203 14 222 177 l6 57 -201 0 c-189 0 -202 1 -195 18 4 9
10 25 12 35 5 16 25 17 239 17 l234 0 0 25 0 25 -330 0 -330 0 0 -25z"/>
</g>
</svg>
